<?xml version="1.0" encoding="UTF-8" standalone="no"?>
<!-- Created with Inkscape (http://www.inkscape.org/) -->

<svg
   version="1.1"
   id="svg1"
   width="58.904114"
   height="57.00946"
   viewBox="0 0 58.904114 57.009463"
   sodipodi:docname="Parhelion-1.jpg"
   xmlns:inkscape="http://www.inkscape.org/namespaces/inkscape"
   xmlns:sodipodi="http://sodipodi.sourceforge.net/DTD/sodipodi-0.dtd"
   xmlns="http://www.w3.org/2000/svg"
   xmlns:svg="http://www.w3.org/2000/svg">
  <defs
     id="defs1" />
  <sodipodi:namedview
     id="namedview1"
     pagecolor="#ffffff"
     bordercolor="#000000"
     borderopacity="0.25"
     inkscape:showpageshadow="2"
     inkscape:pageopacity="0.0"
     inkscape:pagecheckerboard="0"
     inkscape:deskcolor="#d1d1d1">
    <inkscape:page
       x="0"
       y="0"
       width="58.904114"
       height="57.009464"
       id="page2"
       margin="0"
       bleed="0" />
  </sodipodi:namedview>
  <path
     d="M 0.03719478,28.529331 -5.2215475e-6,0.04933112 4.6520448,0.09683112 l 4.65205,0.0475 L 24.984094,17.035281 c 8.624,9.29003 17.75971,19.1327 20.30157,21.8726 l 4.62158,4.9816 -0.0112,-15.36007 -0.0112,-15.36 -4.64741,5.01291 -4.64742,5.0129 -2.93587,-3.43647 -2.93587,-3.43647 7.77293,-8.1611299 7.77292,-8.161119981436 4.32,0.02470000144 4.32,0.0247 V 28.529431 57.009481 h -4.38932 -4.38932 l -20.30386,-21.76 C 18.654494,23.281431 9.3976848,13.489431 9.2509448,13.489431 c -0.14675,0 -0.25333,6.84 -0.23684,15.2 l 0.03,15.20005 4.6549392,-4.9389 4.65494,-4.93881 3.09869,3.14601 3.09869,3.146 -7.85632,8.3528 -7.8563192,8.3529 h -4.3821 -4.38210002 z"
     style="fill:#000000"
     id="path1-1"
     inkscape:export-filename="../icon.svg"
     inkscape:export-xdpi="96"
     inkscape:export-ydpi="96" />
</svg>
