<?xml version="1.0" encoding="UTF-8" standalone="no"?>
<!-- Created with Inkscape (http://www.inkscape.org/) -->

<svg
   version="1.1"
   id="svg1"
   width="259.19998"
   height="165.30475"
   viewBox="0 0 259.19998 165.30475"
   sodipodi:docname="SG-01.jpg"
   xmlns:inkscape="http://www.inkscape.org/namespaces/inkscape"
   xmlns:sodipodi="http://sodipodi.sourceforge.net/DTD/sodipodi-0.dtd"
   xmlns="http://www.w3.org/2000/svg"
   xmlns:svg="http://www.w3.org/2000/svg">
  <defs
     id="defs1" />
  <sodipodi:namedview
     id="namedview1"
     pagecolor="#ffffff"
     bordercolor="#000000"
     borderopacity="0.25"
     inkscape:showpageshadow="2"
     inkscape:pageopacity="0.0"
     inkscape:pagecheckerboard="0"
     inkscape:deskcolor="#d1d1d1">
    <inkscape:page
       x="0"
       y="0"
       width="259.19998"
       height="165.30475"
       id="page2"
       margin="0"
       bleed="0" />
  </sodipodi:namedview>
  <g
     inkscape:groupmode="layer"
     inkscape:label="Image"
     id="g1"
     transform="translate(-270.07999,-309.57525)">
    <path
       style="fill:#000000"
       d="m 270.08,467.84002 v -7.04 h 13.50847 c 12.60326,0 13.4795,-0.0751 13.07609,-1.12 -4.71891,-12.22354 -7.56126,-24.17742 -7.64649,-32.15835 l -0.0581,-5.43834 3.2,-0.75341 c 1.76,-0.41437 4.784,-1.07075 6.72,-1.45862 7.02065,-1.40656 6.68215,-2.52507 -1.28,-4.22946 -2.64,-0.56512 -5.77659,-1.32745 -6.9702,-1.69406 l -2.1702,-0.66656 0.401,-5.6493 c 1.44223,-20.31831 11.19728,-42.92782 25.78492,-59.76233 18.41544,-21.2519 47.48529,-35.93121 75.02703,-37.88618 l 5.74995,-0.40814 1.72461,5.69237 c 0.94854,3.13081 1.86012,5.92236 2.02573,6.20345 0.66925,1.13593 1.98007,-1.06818 3.06306,-5.15047 1.6734,-6.30778 1.86612,-6.5612 4.98661,-6.55683 4.14554,0.006 14.79229,1.74265 21.89531,3.57187 26.16427,6.73804 49.5411,23.24867 64.53747,45.58166 9.63987,14.35596 16.23099,32.81024 17.45762,48.87909 l 0.42415,5.55638 -3.44853,0.93498 c -1.8967,0.51424 -5.03254,1.32842 -6.96854,1.8093 -2.29023,0.56886 -3.52,1.20574 -3.52,1.82295 0,0.61722 1.22977,1.25409 3.52,1.82296 1.936,0.48087 5.05962,1.2915 6.94137,1.8014 l 3.42137,0.92708 -0.44074,4.60428 c -0.94245,9.84541 -3.75659,21.58983 -7.27573,30.36428 l -1.34759,3.36 h 13.43066 13.43066 v 7.04 7.04 H 399.68 270.08 Z m 56.36462,-12.96 c -3.82024,-7.20582 -6.67941,-15.21148 -8.10862,-22.70407 -1.42634,-7.47749 -1.43177,-20.50663 -0.0116,-27.87185 6.16163,-31.95564 31.31107,-56.8516 64.56607,-63.9153 8.5405,-1.81409 23.60472,-1.95787 32.0689,-0.30609 17.48178,3.41156 32.48553,11.24257 44.24064,23.09084 19.90486,20.0626 27.62972,47.56253 20.82946,74.15131 -1.58988,6.21637 -4.87728,14.45847 -7.5119,18.83369 -1.16466,1.9341 -2.11756,3.76966 -2.11756,4.07901 0,0.30936 1.97096,0.56246 4.3799,0.56246 h 4.37989 l 3.24482,-6.88 c 5.97289,-12.66432 8.06228,-22.05068 8.0848,-36.32 0.0165,-10.45914 -0.99528,-17.35045 -3.85257,-26.24 -9.73994,-30.30272 -36.09363,-53.63666 -67.90631,-60.12522 -24.30545,-4.95738 -50.20236,0.005 -70.25052,13.46161 -18.86961,12.66548 -31.62924,30.64225 -37.20948,52.42361 -1.33148,5.19713 -1.70238,8.45763 -1.97341,17.3478 -0.37204,12.20292 0.468,19.19041 3.43699,28.58893 1.66898,5.28325 6.02287,15.28552 7.34939,16.88388 0.47012,0.56646 2.21071,0.85939 5.10645,0.85939 h 4.39322 z m 126.9491,3.05468 c 5.11172,-6.23818 9.63969,-15.20562 12.01967,-23.80439 2.01629,-7.28476 2.02026,-24.48247 0.007,-31.75191 -5.80177,-20.95243 -21.81237,-37.93602 -42.62317,-45.21346 -35.30637,-12.34648 -74.38749,5.52664 -86.86959,39.72838 -7.29677,19.99364 -3.77926,42.46264 9.39011,59.98178 l 2.95042,3.92492 h 51.38866 51.38865 z"
       id="path1"
       sodipodi:nodetypes="ccscscsssscssscssscssscssssscssccccccccsssssssssscsssssssssscscscssscccc" />
  </g>
</svg>
