<?xml version='1.0' encoding='utf-8'?>
<svg xmlns:ns0="http://www.inkscape.org/namespaces/inkscape" xmlns:ns1="http://sodipodi.sourceforge.net/DTD/sodipodi-0.dtd" xmlns:rdf="http://www.w3.org/1999/02/22-rdf-syntax-ns#" ns0:version="1.0 (4035a4fb49, 2020-05-01)" ns1:docname="NISEI_ADAM.svg" viewBox="0 0 1056 1056" height="512.0" width="512.0" xml:space="preserve" id="svg288" version="1.1"><metadata id="metadata294"><RDF><Work rdf:about=""><format>image/svg+xml</format><type rdf:resource="http://purl.org/dc/dcmitype/StillImage" /><title /></Work></RDF></metadata><defs id="defs292"><clipPath id="clipPath304" clipPathUnits="userSpaceOnUse"><path id="path302" d="M 0,792 H 792 V 0 H 0 Z" /></clipPath></defs><namedview ns0:current-layer="g296" ns0:window-maximized="1" ns0:window-y="-8" ns0:window-x="-8" ns0:cy="528" ns0:cx="353.63721" ns0:zoom="0.81439394" showgrid="false" id="namedview290" ns0:window-height="1027" ns0:window-width="1920" ns0:pageshadow="2" ns0:pageopacity="0" guidetolerance="10" gridtolerance="10" objecttolerance="10" borderopacity="1" bordercolor="#666666" pagecolor="#ffffff" /><g transform="matrix(1.3333333,0,0,-1.3333333,0,1056)" ns0:label="Adam Glyph" ns0:groupmode="layer" id="g296"><g id="g298"><g clip-path="url(#clipPath304)" id="g300"><g transform="translate(711.7744,398.8433)" id="g306"><path id="path308" style="fill:#a89c33;fill-opacity:1;fill-rule:nonzero;stroke:none" d="m 0,0 c 0,-174.532 -141.486,-316.018 -316.018,-316.018 -174.531,0 -316.017,141.486 -316.017,316.018 0,174.531 141.486,316.017 316.017,316.017 C -141.486,316.017 0,174.531 0,0" /></g><g transform="translate(394.8301,576.3208)" id="g310"><path id="path312" style="fill:none;stroke:#ffffff;stroke-width:40;stroke-linecap:butt;stroke-linejoin:miter;stroke-miterlimit:10;stroke-dasharray:none;stroke-opacity:1" d="m 0,0 c 35.258,0 63.84,-28.582 63.84,-63.839 0,-35.258 -28.582,-63.84 -63.84,-63.84 -35.257,0 -63.839,28.582 -63.839,63.84 C -63.839,-28.582 -35.257,0 0,0 Z" /></g><g transform="translate(394.8301,576.3208)" id="g314"><path id="path316" style="fill:none;stroke:#ffffff;stroke-width:40;stroke-linecap:butt;stroke-linejoin:miter;stroke-miterlimit:10;stroke-dasharray:none;stroke-opacity:1" d="M 0,0 V 135.941" /></g><g transform="translate(239.8066,305.6719)" id="g318"><path id="path320" style="fill:none;stroke:#ffffff;stroke-width:40;stroke-linecap:butt;stroke-linejoin:miter;stroke-miterlimit:10;stroke-dasharray:none;stroke-opacity:1" d="M 0,0 C -17.629,30.534 -7.167,69.577 23.367,87.206 53.9,104.835 92.944,94.373 110.573,63.839 128.201,33.306 117.74,-5.738 87.206,-23.367 56.672,-40.995 17.628,-30.534 0,0 Z" /></g><g transform="translate(239.8066,305.6719)" id="g322"><path id="path324" style="fill:none;stroke:#ffffff;stroke-width:40;stroke-linecap:butt;stroke-linejoin:miter;stroke-miterlimit:10;stroke-dasharray:none;stroke-opacity:1" d="M 0,0 -117.729,-67.971" /></g><g transform="translate(551.707,306.7422)" id="g326"><path id="path328" style="fill:none;stroke:#ffffff;stroke-width:40;stroke-linecap:butt;stroke-linejoin:miter;stroke-miterlimit:10;stroke-dasharray:none;stroke-opacity:1" d="m 0,0 c -17.629,-30.534 -56.672,-40.996 -87.206,-23.367 -30.534,17.629 -40.995,56.672 -23.367,87.206 17.629,30.534 56.673,40.995 87.206,23.367 C 7.167,69.577 17.629,30.533 0,0 Z" /></g><g transform="translate(551.707,306.7422)" id="g330"><path id="path332" style="fill:none;stroke:#ffffff;stroke-width:40;stroke-linecap:butt;stroke-linejoin:miter;stroke-miterlimit:10;stroke-dasharray:none;stroke-opacity:1" d="M 0,0 117.729,-67.972" /></g><g transform="translate(237.7612,672.5449)" id="g334"><path id="path336" style="fill:none;stroke:#ffffff;stroke-width:40;stroke-linecap:butt;stroke-linejoin:round;stroke-miterlimit:10;stroke-dasharray:none;stroke-opacity:1" d="m 0,0 43.842,-75.938 0.051,-0.087 c -68.35,-39.467 -114.243,-113.1 -114.243,-197.7 h -87.685" /></g><g transform="translate(237.7119,125.1699)" id="g338"><path id="path340" style="fill:none;stroke:#ffffff;stroke-width:40;stroke-linecap:butt;stroke-linejoin:round;stroke-miterlimit:10;stroke-dasharray:none;stroke-opacity:1" d="m 0,0 43.842,75.938 0.051,0.087 c 68.355,-39.46 155.07,-42.387 228.335,-0.087 L 316.07,0" /></g><g transform="translate(711.7773,398.8145)" id="g342"><path id="path344" style="fill:none;stroke:#ffffff;stroke-width:40;stroke-linecap:butt;stroke-linejoin:round;stroke-miterlimit:10;stroke-dasharray:none;stroke-opacity:1" d="m 0,0 h -87.685 -0.101 c -0.004,78.927 -40.826,155.488 -114.092,197.788 l 43.843,75.937" /></g></g></g></g></svg>